# xmcd CD database file
#
# Track frame offsets:
#	150
#	9537
#	31845
#	49897
#	71505
#	91357
#	109402
#	129502
#
# Disc length: 2059 seconds
#
# Revision: 0
# Processed by: cddbd v1.5.1PL0 Copyright (c) Steve Scherf et al.
# Submitted via: CDex 1.51
#
DISCID=66080908
DTITLE=麻波25 - PH-OSY
DYEAR=1900
DGENRE=Rap/Rock
TTITLE0=麻波 STEREO
TTITLE1=PAST TO FAST
TTITLE2=PHILOSOPHY 025 feat. YOU THE ROCK☆
TTITLE3=PH-OSY<22.4>
TTITLE4=DOUBLE THE SHOCK WAVE feat. AKEEM
TTITLE5=EVER SINCE
TTITLE6=AIM HIGHER
TTITLE7=PLAY GROUND
EXTD=
EXTT0=
EXTT1=
EXTT2=
EXTT3=
EXTT4=
EXTT5=
EXTT6=
EXTT7=
PLAYORDER=
